HIERARCHY
ROOT joint_Root
{
	OFFSET 0.0 0.0 0.0
	CHANNELS 6 Xposition Yposition Zposition Zrotation Xrotation Yrotation 
	JOINT Hips
	{
		OFFSET -17.1583 93.1646 452.98
		CHANNELS 6 Xposition Yposition Zposition Zrotation Xrotation Yrotation 
		JOINT Spine
		{
			OFFSET 15.7357 0.0 0.0
			CHANNELS 6 Xposition Yposition Zposition Zrotation Xrotation Yrotation 
			JOINT Chest
			{
				OFFSET 8.98455 -0.406207 0.0
				CHANNELS 6 Xposition Yposition Zposition Zrotation Xrotation Yrotation 
				JOINT Neck
				{
					OFFSET 16.3773 0.0 0.0
					CHANNELS 6 Xposition Yposition Zposition Zrotation Xrotation Yrotation 
					JOINT Head
					{
						OFFSET 6.45672 0.0 0.0
						CHANNELS 6 Xposition Yposition Zposition Zrotation Xrotation Yrotation 
						End Site
						{
							OFFSET 0.0 0.0 0.0
						}
					}
				}
				JOINT Shoulder_L
				{
					OFFSET 12.9942 -0.242716 4.98039
					CHANNELS 6 Xposition Yposition Zposition Zrotation Xrotation Yrotation 
					JOINT UpperArm_L
					{
						OFFSET 5.34809 0.0 0.0
						CHANNELS 6 Xposition Yposition Zposition Zrotation Xrotation Yrotation 
						JOINT LowerArm_L
						{
							OFFSET 24.3286 1.87007e-05 0.0
							CHANNELS 6 Xposition Yposition Zposition Zrotation Xrotation Yrotation 
							JOINT Hand_L
							{
								OFFSET 22.2916 0.0 0.0
								CHANNELS 6 Xposition Yposition Zposition Zrotation Xrotation Yrotation 
								End Site
								{
									OFFSET 0.0 0.0 0.0
								}
							}
						}
					}
				}
				JOINT Shoulder_R
				{
					OFFSET 12.9945 -0.242716 -4.98039
					CHANNELS 6 Xposition Yposition Zposition Zrotation Xrotation Yrotation 
					JOINT UpperArm_R
					{
						OFFSET -5.34813 0.0 0.0
						CHANNELS 6 Xposition Yposition Zposition Zrotation Xrotation Yrotation 
						JOINT LowerArm_R
						{
							OFFSET -24.3289 0.000322201 0.0
							CHANNELS 6 Xposition Yposition Zposition Zrotation Xrotation Yrotation 
							JOINT Hand_R
							{
								OFFSET -22.2915 -0.000108084 0.0
								CHANNELS 6 Xposition Yposition Zposition Zrotation Xrotation Yrotation 
								End Site
								{
									OFFSET 0.0 0.0 0.0
								}
							}
						}
					}
				}
			}
		}
		JOINT UpperLeg_L
		{
			OFFSET -2.19248 -6.46944 0.0
			CHANNELS 6 Xposition Yposition Zposition Zrotation Xrotation Yrotation 
			JOINT LowerLeg_L
			{
				OFFSET 39.0811 0.0 -1.23785e-05
				CHANNELS 6 Xposition Yposition Zposition Zrotation Xrotation Yrotation 
				JOINT Foot_L
				{
					OFFSET 40.9854 0.0 -1.26872e-05
					CHANNELS 6 Xposition Yposition Zposition Zrotation Xrotation Yrotation 
					JOINT Toes_L
					{
						OFFSET 11.7543 0.0 0.0
						CHANNELS 6 Xposition Yposition Zposition Zrotation Xrotation Yrotation 
						End Site
						{
							OFFSET 0.0 0.0 0.0
						}
					}
				}
			}
		}
		JOINT UpperLeg_R
		{
			OFFSET -2.19251 6.46944 0.0
			CHANNELS 6 Xposition Yposition Zposition Zrotation Xrotation Yrotation 
			JOINT LowerLeg_R
			{
				OFFSET -39.0811 -0.00228153 -0.0401928
				CHANNELS 6 Xposition Yposition Zposition Zrotation Xrotation Yrotation 
				JOINT Foot_R
				{
					OFFSET -40.9854 0.0 0.0
					CHANNELS 6 Xposition Yposition Zposition Zrotation Xrotation Yrotation 
					JOINT Toes_R
					{
						OFFSET -11.7543 0.0 0.0
						CHANNELS 6 Xposition Yposition Zposition Zrotation Xrotation Yrotation 
						End Site
						{
							OFFSET 0.0 0.0 0.0
						}
					}
				}
			}
		}
	}
}
MOTION
Frames:	7
Frame Time:	0.0333333
0.000000 0.000000 0.000000 0.000000 0.000000 -0.000000 141.876000 89.240700 191.400000 -91.927000 32.679000 177.833000 15.735700 0.000005 -0.000001 109.964000 87.609500 -110.003000 8.984550 -0.406207 -0.000000 -3.272340 1.635360 -0.031671 16.377300 -0.000001 -0.000001 6.178770 11.458400 -1.801960 6.456720 -0.000001 -0.000000 7.360460 16.757600 1.340750 12.994200 -0.242716 4.980390 -92.893800 7.512750 -68.862900 5.348090 -0.000007 -0.000001 -64.219300 -18.340900 11.942800 24.328600 0.000019 0.000005 4.070580 15.929100 -14.535500 22.291600 -0.000001 0.000005 49.360100 4.437000 17.628600 12.994500 -0.242716 -4.980390 88.884100 3.430190 -71.967300 -5.348130 -0.000001 -0.000004 -72.329200 14.313900 -3.153680 -24.328900 0.000322 -0.000009 9.420750 12.532300 -37.408100 -22.291500 -0.000108 -0.000004 32.333700 5.436920 -4.179250 -2.192480 -6.469440 -0.000000 165.387000 -1.712650 -23.697000 39.081100 -0.000007 -0.000012 0.366138 -0.660732 28.993400 40.985400 -0.000006 -0.000013 14.527600 5.827930 -63.640000 11.754300 -0.000000 0.000003 0.000055 0.166692 -9.815920 -2.192510 6.469440 -0.000001 170.256000 11.699600 169.070000 -39.081100 -0.002282 -0.040193 0.409634 -0.219613 61.616900 -40.985400 0.000008 0.000006 -5.457350 -4.603250 -29.234900 -11.754300 -0.000006 -0.000006 -0.000567 0.176714 -9.405360
0.000000 0.000000 0.000000 0.000000 0.000000 -0.000000 143.909000 89.772000 188.141000 -91.542700 30.610100 178.827000 15.735700 0.000005 -0.000001 100.710000 87.361900 -100.386000 8.984550 -0.406207 -0.000000 -2.584500 0.950958 0.668132 16.377300 -0.000001 -0.000001 6.325330 11.193300 -2.819850 6.456720 -0.000001 -0.000000 7.555150 16.337100 0.336443 12.994200 -0.242716 4.980390 -93.073000 7.944300 -68.772400 5.348090 -0.000007 -0.000001 -69.359200 -11.811700 9.428020 24.328600 0.000019 0.000005 6.358290 18.784500 -19.084900 22.291600 -0.000001 0.000005 48.701600 4.529730 16.104900 12.994500 -0.242716 -4.980390 88.878800 3.421010 -71.841400 -5.348130 -0.000001 -0.000004 -72.318500 14.768700 -1.885480 -24.328900 0.000322 -0.000009 8.139830 13.868600 -30.827700 -22.291500 -0.000108 -0.000004 31.270300 5.450720 -4.665910 -2.192480 -6.469440 -0.000000 165.802000 -2.409570 -18.703700 39.081100 -0.000007 -0.000012 0.366509 -0.697886 27.708000 40.985400 -0.000006 -0.000013 15.155000 7.657120 -66.028100 11.754300 -0.000000 0.000003 -0.000290 0.172377 -9.585030 -2.192510 6.469440 -0.000001 171.000000 9.590310 164.591000 -39.081100 -0.002282 -0.040193 0.301104 -0.131156 66.241400 -40.985400 0.000008 0.000006 -4.136410 -4.115410 -35.634300 -11.754300 -0.000006 -0.000006 -0.000271 0.172106 -9.592570
0.000000 0.000000 0.000000 0.000000 0.000000 -0.000000 145.996000 90.451800 185.167000 -90.494200 28.442100 179.247000 15.735700 0.000005 -0.000001 94.946300 87.069500 -94.170200 8.984550 -0.406207 -0.000000 -1.929400 0.439570 1.559290 16.377300 -0.000001 -0.000001 6.196310 10.787400 -3.391650 6.456720 -0.000001 -0.000000 7.192830 15.549900 -0.294156 12.994200 -0.242716 4.980390 -93.073900 7.995130 -68.888800 5.348090 -0.000007 -0.000001 -73.208500 -5.647710 7.281530 24.328600 0.000019 0.000005 10.415900 22.161900 -25.977100 22.291600 -0.000001 0.000005 48.881800 4.595550 14.991400 12.994500 -0.242716 -4.980390 88.975900 3.101410 -71.715900 -5.348130 -0.000001 -0.000004 -72.973500 13.688300 -0.287777 -24.328900 0.000322 -0.000009 5.905490 13.207300 -24.359900 -22.291500 -0.000108 -0.000004 29.665000 5.442970 -4.389450 -2.192480 -6.469440 -0.000000 167.237000 -2.296560 -13.467300 39.081100 -0.000007 -0.000012 0.311752 -0.665238 25.110000 40.985400 -0.000006 -0.000013 15.311400 9.151430 -67.551300 11.754300 -0.000000 0.000003 -0.000415 0.174339 -9.505330 -2.192510 6.469440 -0.000001 172.472000 6.843350 160.447000 -39.081100 -0.002282 -0.040193 0.211812 -0.084952 67.848600 -40.985400 0.000008 0.000006 -4.520260 -10.117400 -43.231500 -11.754300 -0.000006 -0.000006 -0.000220 0.171293 -9.625560
0.000000 0.000000 0.000000 0.000000 0.000000 -0.000000 148.111000 91.128400 182.426000 -88.921700 26.135600 179.113000 15.735700 0.000005 -0.000001 90.045700 86.808000 -88.713900 8.984550 -0.406207 -0.000000 -1.379400 -0.101159 2.661420 16.377300 -0.000001 -0.000001 5.757350 10.211800 -3.561280 6.456720 -0.000001 -0.000000 6.626100 14.709700 -0.841762 12.994200 -0.242716 4.980390 -93.007700 7.963430 -69.230500 5.348090 -0.000007 -0.000001 -75.356000 0.061537 5.310810 24.328600 0.000019 0.000005 15.821900 24.485000 -34.358600 22.291600 -0.000001 0.000005 49.440200 4.640900 14.205500 12.994500 -0.242716 -4.980390 89.116900 2.659590 -71.624100 -5.348130 -0.000001 -0.000004 -73.612500 12.171100 1.400500 -24.328900 0.000322 -0.000009 4.390030 12.871800 -19.019500 -22.291500 -0.000108 -0.000004 28.673200 5.428270 -3.879370 -2.192480 -6.469440 -0.000000 169.393000 -1.669800 -8.460050 39.081100 -0.000007 -0.000012 0.237246 -0.591160 21.867200 40.985400 -0.000006 -0.000013 15.187800 10.577100 -68.624100 11.754300 -0.000000 0.000003 -0.000118 0.169593 -9.698110 -2.192510 6.469440 -0.000001 174.433000 3.703490 157.250000 -39.081100 -0.002282 -0.040193 0.085672 -0.036852 65.934100 -40.985400 0.000008 0.000006 -3.951450 -15.223300 -51.392300 -11.754300 -0.000006 -0.000006 -0.000432 0.174646 -9.489370
0.000000 0.000000 0.000000 0.000000 0.000000 -0.000000 150.181000 91.740100 179.942000 -87.147300 23.655500 178.450000 15.735700 0.000005 -0.000001 84.067900 86.651400 -82.141400 8.984550 -0.406207 -0.000000 -1.087610 -0.840794 3.843510 16.377300 -0.000001 -0.000001 5.035060 9.651520 -3.534340 6.456720 -0.000001 -0.000000 6.165170 14.053600 -1.272240 12.994200 -0.242716 4.980390 -92.931200 7.985390 -69.767000 5.348090 -0.000007 -0.000001 -75.871700 4.194680 3.462420 24.328600 0.000019 0.000005 23.829200 26.900200 -44.305600 22.291600 -0.000001 0.000005 49.998300 4.629880 14.397200 12.994500 -0.242716 -4.980390 89.238700 2.277920 -71.515000 -5.348130 -0.000001 -0.000004 -73.897200 11.009600 2.959910 -24.328900 0.000322 -0.000009 3.577770 13.533100 -14.963800 -22.291500 -0.000108 -0.000004 27.722800 5.414940 -3.428020 -2.192480 -6.469440 -0.000000 171.847000 0.144125 -3.959390 39.081100 -0.000007 -0.000012 0.151963 -0.465647 18.074300 40.985400 -0.000006 -0.000013 14.668400 11.223700 -69.101400 11.754300 -0.000000 0.000003 0.000131 0.165397 -9.868490 -2.192510 6.469440 -0.000001 176.178000 -0.152099 154.960000 -39.081100 -0.002282 -0.040193 0.016219 -0.007466 60.168400 -40.985400 0.000008 0.000006 -4.291420 -18.704700 -57.449400 -11.754300 -0.000006 -0.000006 -0.001080 0.184205 -9.100990
0.000000 0.000000 0.000000 0.000000 0.000000 -0.000000 152.171000 92.212900 177.560000 -85.923300 20.806300 177.856000 15.735700 0.000005 -0.000001 75.854600 86.447200 -73.514600 8.984550 -0.406207 -0.000000 -0.832505 -1.911630 4.664340 16.377300 -0.000001 -0.000001 4.116260 9.081230 -3.373790 6.456720 -0.000001 -0.000000 5.596540 13.455100 -1.495470 12.994200 -0.242716 4.980390 -92.810700 7.904030 -70.352700 5.348090 -0.000007 -0.000001 -75.489500 6.459100 1.423180 24.328600 0.000019 0.000005 32.989600 27.680400 -54.410100 22.291600 -0.000001 0.000005 50.330700 4.633410 14.335800 12.994500 -0.242716 -4.980390 89.311100 2.054350 -71.458000 -5.348130 -0.000001 -0.000004 -73.856200 9.873410 4.480280 -24.328900 0.000322 -0.000009 3.021310 13.846900 -12.440900 -22.291500 -0.000108 -0.000004 26.827600 5.399690 -2.927080 -2.192480 -6.469440 -0.000000 174.271000 2.545370 -1.045100 39.081100 -0.000007 -0.000012 0.054343 -0.190723 15.904100 40.985400 -0.000006 -0.000013 9.923680 12.418300 -67.859600 11.754300 -0.000000 0.000003 0.000485 0.159023 -10.127300 -2.192510 6.469440 -0.000001 176.736000 -4.042260 153.902000 -39.081100 -0.002282 -0.040193 0.001434 0.001468 50.953400 -40.985400 0.000008 0.000006 -5.040730 -21.647100 -60.544700 -11.754300 -0.000006 -0.000006 -0.001309 0.187379 -8.971980
0.000000 0.000000 0.000000 0.000000 0.000000 -0.000000 154.073000 92.532200 175.110000 -85.625400 18.082700 177.664000 15.735700 0.000005 -0.000001 68.823000 86.169700 -66.403900 8.984550 -0.406207 -0.000000 -0.555686 -2.942390 4.822300 16.377300 -0.000001 -0.000001 3.147950 8.481610 -3.095870 6.456720 -0.000001 -0.000000 5.027680 12.807900 -1.566000 12.994200 -0.242716 4.980390 -92.625700 7.625250 -70.934700 5.348090 -0.000007 -0.000001 -74.586400 7.853890 -0.964868 24.328600 0.000019 0.000005 38.254900 25.033300 -61.778500 22.291600 -0.000001 0.000005 50.515800 4.618470 14.595700 12.994500 -0.242716 -4.980390 89.336700 1.968470 -71.374100 -5.348130 -0.000001 -0.000004 -73.689100 8.336750 6.052780 -24.328900 0.000322 -0.000009 2.744620 13.930600 -11.266000 -22.291500 -0.000108 -0.000004 26.824300 5.384790 -2.449730 -2.192480 -6.469440 -0.000000 175.830000 4.325650 1.462500 39.081100 -0.000007 -0.000012 -0.000387 0.001533 14.170000 40.985400 -0.000006 -0.000013 5.150300 14.044600 -65.904200 11.754300 -0.000000 0.000003 0.001796 0.127995 -11.386300 -2.192510 6.469440 -0.000001 175.776000 -7.942280 154.427000 -39.081100 -0.002282 -0.040193 0.005262 -0.002454 38.914600 -40.985400 0.000008 0.000006 -5.465180 -23.432600 -62.710800 -11.754300 -0.000006 -0.000006 -0.001713 0.192733 -8.754330
